# xmcd
#
# Track frame offsets: 
#        150
#        13492
#        23907
#        35530
#        46385
#        57052
#        70920
#        81537
#        95425
#        107957
#        117905
#        130132
#
# Disc length: 1892 seconds
#
# Revision: 0
# Processed by: cddbd v1.5.1PL0 Copyright (c) Steve Scherf et al.
# Submitted via: ExactAudioCopy v0.95a5
#
DISCID=a707620c
DTITLE=Jim Reeves - Take My Hand, Precious Lord
DYEAR=2000
DGENRE=Gospel
TTITLE0=It's No Secret What God Can Do
TTITLE1=In The Garden
TTITLE2=I'll Fly Away
TTITLE3=Take My Hand, Precious Lord
TTITLE4=The Night Watch
TTITLE5=Whispering Hope
TTITLE6=Where We'll Never Grow Old
TTITLE7=Have Thine Own Way, Lord
TTITLE8=This World Is Not My Home
TTITLE9=The Farmer And The Lord (Sweet Hour Of Prayer)
TTITLE10=Precious Memories
TTITLE11=May The Good Lord Bless You and Keep You
EXTD=
EXTT0=
EXTT1=
EXTT2=
EXTT3=
EXTT4=
EXTT5=
EXTT6=
EXTT7=
EXTT8=
EXTT9=
EXTT10=
EXTT11=
PLAYORDER=
